<svg width="162" height="23" viewBox="0 0 162 23" fill="none" xmlns="http://www.w3.org/2000/svg">
<path d="M8.75953 18.288C7.06353 18.288 5.60753 17.928 4.39153 17.208C3.17553 16.472 2.23953 15.456 1.58353 14.16C0.927531 12.848 0.599531 11.336 0.599531 9.624C0.599531 7.912 0.927531 6.4 1.58353 5.088C2.23953 3.776 3.17553 2.752 4.39153 2.016C5.60753 1.28 7.06353 0.912 8.75953 0.912C10.7755 0.912 12.4235 1.416 13.7035 2.424C14.9995 3.416 15.8075 4.816 16.1275 6.624H12.7435C12.5355 5.712 12.0875 5 11.3995 4.488C10.7275 3.96 9.83153 3.696 8.71153 3.696C7.15953 3.696 5.94353 4.224 5.06353 5.28C4.18353 6.336 3.74353 7.784 3.74353 9.624C3.74353 11.464 4.18353 12.912 5.06353 13.968C5.94353 15.008 7.15953 15.528 8.71153 15.528C9.83153 15.528 10.7275 15.288 11.3995 14.808C12.0875 14.312 12.5355 13.632 12.7435 12.768H16.1275C15.8075 14.496 14.9995 15.848 13.7035 16.824C12.4235 17.8 10.7755 18.288 8.75953 18.288ZM24.4868 18.288C23.3348 18.288 22.2948 18.024 21.3668 17.496C20.4548 16.968 19.7268 16.24 19.1828 15.312C18.6548 14.368 18.3908 13.28 18.3908 12.048C18.3908 10.816 18.6628 9.736 19.2068 8.808C19.7508 7.864 20.4788 7.128 21.3908 6.6C22.3188 6.072 23.3588 5.808 24.5108 5.808C25.6468 5.808 26.6708 6.072 27.5828 6.6C28.5108 7.128 29.2388 7.864 29.7668 8.808C30.3108 9.736 30.5828 10.816 30.5828 12.048C30.5828 13.28 30.3108 14.368 29.7668 15.312C29.2388 16.24 28.5108 16.968 27.5828 17.496C26.6548 18.024 25.6228 18.288 24.4868 18.288ZM24.4868 15.624C25.2868 15.624 25.9828 15.328 26.5748 14.736C27.1668 14.128 27.4628 13.232 27.4628 12.048C27.4628 10.864 27.1668 9.976 26.5748 9.384C25.9828 8.776 25.2948 8.472 24.5108 8.472C23.6948 8.472 22.9908 8.776 22.3988 9.384C21.8228 9.976 21.5348 10.864 21.5348 12.048C21.5348 13.232 21.8228 14.128 22.3988 14.736C22.9908 15.328 23.6868 15.624 24.4868 15.624ZM33.3295 18V6.096H36.0415L36.2815 8.112C36.6495 7.408 37.1775 6.848 37.8655 6.432C38.5695 6.016 39.3935 5.808 40.3375 5.808C41.8095 5.808 42.9535 6.272 43.7695 7.2C44.5855 8.128 44.9935 9.488 44.9935 11.28V18H41.9215V11.568C41.9215 10.544 41.7135 9.76 41.2975 9.216C40.8815 8.672 40.2335 8.4 39.3535 8.4C38.4895 8.4 37.7775 8.704 37.2175 9.312C36.6735 9.92 36.4015 10.768 36.4015 11.856V18H33.3295ZM53.6431 18.288C52.4911 18.288 51.4511 18.024 50.5231 17.496C49.6111 16.968 48.8831 16.24 48.3391 15.312C47.8111 14.368 47.5471 13.28 47.5471 12.048C47.5471 10.816 47.8191 9.736 48.3631 8.808C48.9071 7.864 49.6351 7.128 50.5471 6.6C51.4751 6.072 52.5151 5.808 53.6671 5.808C54.8031 5.808 55.8271 6.072 56.7391 6.6C57.6671 7.128 58.3951 7.864 58.9231 8.808C59.4671 9.736 59.7391 10.816 59.7391 12.048C59.7391 13.28 59.4671 14.368 58.9231 15.312C58.3951 16.24 57.6671 16.968 56.7391 17.496C55.8111 18.024 54.7791 18.288 53.6431 18.288ZM53.6431 15.624C54.4431 15.624 55.1391 15.328 55.7311 14.736C56.3231 14.128 56.6191 13.232 56.6191 12.048C56.6191 10.864 56.3231 9.976 55.7311 9.384C55.1391 8.776 54.4511 8.472 53.6671 8.472C52.8511 8.472 52.1471 8.776 51.5551 9.384C50.9791 9.976 50.6911 10.864 50.6911 12.048C50.6911 13.232 50.9791 14.128 51.5551 14.736C52.1471 15.328 52.8431 15.624 53.6431 15.624ZM52.8511 5.136V2.976L58.2751 0.0479994V2.544L52.8511 5.136ZM68.3178 18.288C67.1018 18.288 66.0298 18.024 65.1018 17.496C64.1738 16.968 63.4378 16.232 62.8938 15.288C62.3658 14.344 62.1018 13.264 62.1018 12.048C62.1018 10.832 62.3658 9.752 62.8938 8.808C63.4378 7.864 64.1738 7.128 65.1018 6.6C66.0298 6.072 67.1018 5.808 68.3178 5.808C69.8378 5.808 71.1178 6.208 72.1578 7.008C73.1978 7.792 73.8618 8.88 74.1498 10.272H70.9098C70.7498 9.696 70.4298 9.248 69.9498 8.928C69.4858 8.592 68.9338 8.424 68.2938 8.424C67.4458 8.424 66.7258 8.744 66.1338 9.384C65.5418 10.024 65.2458 10.912 65.2458 12.048C65.2458 13.184 65.5418 14.072 66.1338 14.712C66.7258 15.352 67.4458 15.672 68.2938 15.672C68.9338 15.672 69.4858 15.512 69.9498 15.192C70.4298 14.872 70.7498 14.416 70.9098 13.824H74.1498C73.8618 15.168 73.1978 16.248 72.1578 17.064C71.1178 17.88 69.8378 18.288 68.3178 18.288ZM82.6604 18.288C81.4604 18.288 80.3964 18.032 79.4684 17.52C78.5404 17.008 77.8124 16.288 77.2844 15.36C76.7564 14.432 76.4924 13.36 76.4924 12.144C76.4924 10.912 76.7484 9.816 77.2604 8.856C77.7884 7.896 78.5084 7.152 79.4204 6.624C80.3484 6.08 81.4364 5.808 82.6844 5.808C83.8524 5.808 84.8844 6.064 85.7804 6.576C86.6764 7.088 87.3724 7.792 87.8684 8.688C88.3804 9.568 88.6364 10.552 88.6364 11.64C88.6364 11.816 88.6284 12 88.6124 12.192C88.6124 12.384 88.6044 12.584 88.5884 12.792H79.5404C79.6044 13.72 79.9244 14.448 80.5004 14.976C81.0924 15.504 81.8044 15.768 82.6364 15.768C83.2604 15.768 83.7804 15.632 84.1964 15.36C84.6284 15.072 84.9484 14.704 85.1564 14.256H88.2764C88.0524 15.008 87.6764 15.696 87.1484 16.32C86.6364 16.928 85.9964 17.408 85.2284 17.76C84.4764 18.112 83.6204 18.288 82.6604 18.288ZM82.6844 8.304C81.9324 8.304 81.2684 8.52 80.6924 8.952C80.1164 9.368 79.7484 10.008 79.5884 10.872H85.5164C85.4684 10.088 85.1804 9.464 84.6524 9C84.1244 8.536 83.4684 8.304 82.6844 8.304ZM91.2202 18V0.719999H94.2922V18H91.2202ZM103.143 18.288C101.991 18.288 100.951 18.024 100.023 17.496C99.1111 16.968 98.3831 16.24 97.8391 15.312C97.3111 14.368 97.0471 13.28 97.0471 12.048C97.0471 10.816 97.3191 9.736 97.8631 8.808C98.4071 7.864 99.1351 7.128 100.047 6.6C100.975 6.072 102.015 5.808 103.167 5.808C104.303 5.808 105.327 6.072 106.239 6.6C107.167 7.128 107.895 7.864 108.423 8.808C108.967 9.736 109.239 10.816 109.239 12.048C109.239 13.28 108.967 14.368 108.423 15.312C107.895 16.24 107.167 16.968 106.239 17.496C105.311 18.024 104.279 18.288 103.143 18.288ZM103.143 15.624C103.943 15.624 104.639 15.328 105.231 14.736C105.823 14.128 106.119 13.232 106.119 12.048C106.119 10.864 105.823 9.976 105.231 9.384C104.639 8.776 103.951 8.472 103.167 8.472C102.351 8.472 101.647 8.776 101.055 9.384C100.479 9.976 100.191 10.864 100.191 12.048C100.191 13.232 100.479 14.128 101.055 14.736C101.647 15.328 102.343 15.624 103.143 15.624ZM117.705 18V0.719999H120.777V7.92C121.177 7.264 121.713 6.752 122.385 6.384C123.073 6 123.857 5.808 124.737 5.808C126.209 5.808 127.345 6.272 128.145 7.2C128.961 8.128 129.369 9.488 129.369 11.28V18H126.321V11.568C126.321 10.544 126.113 9.76 125.697 9.216C125.297 8.672 124.657 8.4 123.777 8.4C122.913 8.4 122.193 8.704 121.617 9.312C121.057 9.92 120.777 10.768 120.777 11.856V18H117.705ZM138.018 18.288C136.866 18.288 135.826 18.024 134.898 17.496C133.986 16.968 133.258 16.24 132.714 15.312C132.186 14.368 131.922 13.28 131.922 12.048C131.922 10.816 132.194 9.736 132.738 8.808C133.282 7.864 134.01 7.128 134.922 6.6C135.85 6.072 136.89 5.808 138.042 5.808C139.178 5.808 140.202 6.072 141.114 6.6C142.042 7.128 142.77 7.864 143.298 8.808C143.842 9.736 144.114 10.816 144.114 12.048C144.114 13.28 143.842 14.368 143.298 15.312C142.77 16.24 142.042 16.968 141.114 17.496C140.186 18.024 139.154 18.288 138.018 18.288ZM138.018 15.624C138.818 15.624 139.514 15.328 140.106 14.736C140.698 14.128 140.994 13.232 140.994 12.048C140.994 10.864 140.698 9.976 140.106 9.384C139.514 8.776 138.826 8.472 138.042 8.472C137.226 8.472 136.522 8.776 135.93 9.384C135.354 9.976 135.066 10.864 135.066 12.048C135.066 13.232 135.354 14.128 135.93 14.736C136.522 15.328 137.218 15.624 138.018 15.624ZM147.271 23.28L150.031 17.208H149.311L144.679 6.096H148.015L151.351 14.472L154.831 6.096H158.095L150.535 23.28H147.271ZM159.595 18.168C159.035 18.168 158.571 17.992 158.203 17.64C157.851 17.288 157.675 16.864 157.675 16.368C157.675 15.856 157.851 15.424 158.203 15.072C158.571 14.72 159.035 14.544 159.595 14.544C160.155 14.544 160.611 14.72 160.963 15.072C161.331 15.424 161.515 15.856 161.515 16.368C161.515 16.864 161.331 17.288 160.963 17.64C160.611 17.992 160.155 18.168 159.595 18.168Z" fill="white"/>
</svg>
